<svg width="194" height="71" viewBox="0 0 194 71" fill="none" xmlns="http://www.w3.org/2000/svg">
<mask id="mask0_9_2111" style="mask-type:luminance" maskUnits="userSpaceOnUse" x="0" y="0" width="72" height="71">
<path d="M0 0H71.0033V71H0V0Z" fill="white"/>
</mask>
<g mask="url(#mask0_9_2111)">
<mask id="mask1_9_2111" style="mask-type:luminance" maskUnits="userSpaceOnUse" x="0" y="0" width="72" height="71">
<path d="M35.5 0C15.8938 0 0 15.8938 0 35.5C0 55.1062 15.8938 71 35.5 71C55.1096 71 71.0033 55.1062 71.0033 35.5C71.0033 15.8938 55.1096 0 35.5 0Z" fill="white"/>
</mask>
<g mask="url(#mask1_9_2111)">
<path d="M0 0H71.0033V71H0V0Z" fill="#044793"/>
</g>
</g>
<path d="M22.5515 37.6081C22.6282 41.5207 22.9584 43.8889 23.5821 47.7581C23.9157 49.8128 24.3126 51.8775 25.1398 53.8121C25.6101 54.9095 26.3106 56.7974 27.6081 57.2611C30.2265 58.1883 30.9637 54.3024 31.2405 52.5546C31.8075 48.9789 31.4406 46.8942 32.5814 43.3986C33.025 42.041 34.2225 40.907 35.4933 40.8202C36.7641 40.907 37.9616 42.041 38.4052 43.3986C39.546 46.8942 39.1791 48.9789 39.7428 52.5546C40.0196 54.3024 40.7568 58.1883 43.3752 57.2611C44.676 56.7974 45.3765 54.9095 45.8468 53.8121C46.674 51.8775 47.0709 49.8128 47.4011 47.7581C48.0282 43.8889 48.3584 41.5207 48.4351 37.6081C48.5452 37.5347 48.6353 37.4213 48.6886 37.2712C50.9568 30.8904 56.3937 19.6296 48.8721 14.3462C47.1009 13.102 44.7427 12.8118 42.568 13.1154C39.666 13.5223 37.8215 14.3962 35.4933 14.5396C33.1651 14.3962 31.3172 13.5223 28.4187 13.1154C26.2406 12.8118 23.8857 13.102 22.1145 14.3462C14.5896 19.6296 20.0298 30.8904 22.2946 37.2712C22.348 37.4213 22.4414 37.5347 22.5515 37.6081Z" fill="#F2EEE3"/>
<mask id="mask2_9_2111" style="mask-type:luminance" maskUnits="userSpaceOnUse" x="25" y="24" width="21" height="11">
<path d="M25.0064 24.6729H45.8168V34.2192H25.0064V24.6729Z" fill="white"/>
</mask>
<g mask="url(#mask2_9_2111)">
<path d="M43.7955 24.6798H43.1284C43.1284 28.8759 39.6961 32.3115 35.4967 32.3115C31.3006 32.3115 27.8683 28.8759 27.8683 24.6798H25.0065V26.5877H26.1505C27.0078 30.9739 30.9203 34.2194 35.4967 34.2194C40.0764 34.2194 43.9856 30.9739 44.8462 26.5877H45.9902V24.6798H43.7955Z" fill="#044793"/>
</g>
<path d="M95.9794 9.5896C99.8753 9.5896 102.844 10.5969 104.892 12.6049C106.947 14.6162 107.974 17.6082 107.974 21.5842C107.974 25.5434 106.947 28.5321 104.892 30.55C102.844 32.5714 99.8753 33.5787 95.9794 33.5787H87.3471V9.5896H95.9794ZM95.6993 29.5894C98.1709 29.5894 100.015 28.959 101.236 27.6948C102.464 26.434 103.077 24.396 103.077 21.5842C103.077 18.7756 102.464 16.7376 101.236 15.4735C100.015 14.2126 98.1709 13.5789 95.6993 13.5789H92.0836V29.5894H95.6993Z" fill="#044793"/>
<path d="M127.761 25.5602H116.127C116.25 27.1346 116.694 28.282 117.461 29.0025C118.235 29.7163 119.279 30.0698 120.597 30.0698C121.637 30.0698 122.478 29.8764 123.118 29.4828C123.765 29.0925 124.292 28.5055 124.693 27.7216H125.04L128.055 29.6562C127.458 30.9304 126.564 31.9611 125.373 32.7516C124.179 33.5354 122.588 33.9257 120.597 33.9257C118.729 33.9257 117.114 33.5721 115.753 32.8583C114.393 32.1479 113.342 31.0905 112.605 29.6829C111.864 28.2787 111.497 26.5609 111.497 24.5329C111.497 22.4782 111.884 20.7504 112.658 19.3428C113.432 17.9285 114.479 16.8745 115.807 16.1807C117.131 15.4869 118.622 15.14 120.276 15.14C122.838 15.14 124.799 15.8205 126.16 17.1814C127.521 18.5356 128.202 20.5236 128.202 23.1453C128.202 24.0992 128.168 24.8364 128.108 25.3601L127.761 25.5602ZM123.852 22.6116C123.805 21.234 123.485 20.2334 122.892 19.6096C122.294 18.9792 121.424 18.6623 120.276 18.6623C117.982 18.6623 116.627 19.9799 116.22 22.6116H123.852Z" fill="#044793"/>
<path d="M132.157 33.5788V15.4736H136.52V18.142L136.867 18.222C137.987 16.1674 139.809 15.14 142.337 15.14C144.425 15.14 145.959 15.7104 146.94 16.8478C147.917 17.9785 148.408 19.633 148.408 21.8111V33.5788H143.871V22.3714C143.871 21.1706 143.631 20.3034 143.151 19.7697C142.671 19.236 141.897 18.9692 140.829 18.9692C139.528 18.9692 138.514 19.3928 137.787 20.2367C137.057 21.0839 136.693 22.4081 136.693 24.2126V33.5788H132.157Z" fill="#044793"/>
<path d="M163.228 29.2692L164.416 32.6314C163.915 33.0316 163.295 33.3485 162.548 33.5787C161.807 33.8088 160.967 33.9256 160.026 33.9256C158.068 33.9256 156.577 33.3919 155.557 32.3245C154.543 31.2571 154.036 29.7061 154.036 27.6681V19.0758H151.287V15.4601H154.036V11.9378L158.585 11.1906V15.4601H163.722V19.0758H158.585V27.3479C158.585 28.2385 158.772 28.8922 159.146 29.3092C159.519 29.7195 160.06 29.9229 160.773 29.9229C161.581 29.9229 162.284 29.7061 162.881 29.2692H163.228Z" fill="#044793"/>
<path d="M171.859 33.9257C170.702 33.9257 169.698 33.7122 168.844 33.2853C167.99 32.8583 167.33 32.2312 166.869 31.404C166.406 30.5768 166.175 29.5862 166.175 28.4287C166.175 27.3547 166.406 26.4541 166.869 25.7336C167.33 25.0065 168.043 24.4094 169.004 23.9458C169.965 23.4755 171.222 23.1153 172.78 22.8651C173.864 22.6883 174.688 22.4982 175.248 22.2914C175.808 22.0779 176.185 21.8444 176.382 21.5843C176.586 21.3174 176.689 20.9839 176.689 20.5836C176.689 20.0065 176.482 19.5663 176.075 19.2627C175.665 18.9525 174.995 18.7958 174.061 18.7958C173.053 18.7958 172.093 19.0226 171.179 19.4762C170.271 19.9232 169.484 20.5102 168.817 21.2374H168.497L166.589 18.3688C167.503 17.3481 168.624 16.5543 169.951 15.9939C171.275 15.4269 172.72 15.14 174.287 15.14C176.679 15.14 178.41 15.647 179.477 16.661C180.552 17.675 181.092 19.1226 181.092 20.9972V28.8557C181.092 29.6662 181.445 30.0698 182.159 30.0698C182.433 30.0698 182.706 30.0231 182.973 29.9231L183.2 29.9898L183.52 33.1519C183.27 33.312 182.92 33.4454 182.466 33.5521C182.019 33.6589 181.532 33.7122 180.998 33.7122C179.911 33.7122 179.067 33.5054 178.463 33.0851C177.856 32.6682 177.423 32.0178 177.156 31.1372L176.809 31.0972C175.928 32.9851 174.277 33.9257 171.859 33.9257ZM173.3 30.5235C174.347 30.5235 175.188 30.1732 175.822 29.4694C176.452 28.769 176.769 27.785 176.769 26.5208V24.6796L176.449 24.6129C176.182 24.8364 175.825 25.0232 175.381 25.1733C174.935 25.3167 174.294 25.4601 173.46 25.6002C172.48 25.7703 171.772 26.0539 171.339 26.4541C170.912 26.8477 170.698 27.4114 170.698 28.1486C170.698 28.9224 170.925 29.5161 171.379 29.9231C171.839 30.3233 172.48 30.5235 173.3 30.5235Z" fill="#044793"/>
<path d="M191.394 33.9256C189.767 33.9256 188.519 33.4853 187.659 32.6047C186.805 31.7241 186.378 30.3866 186.378 28.5888V8.20203H190.927V28.4153C190.927 29.5194 191.384 30.0697 192.302 30.0697C192.558 30.0697 192.839 30.0264 193.142 29.9363L193.369 30.003L193.783 33.4986C193.522 33.6321 193.186 33.7321 192.769 33.8055C192.358 33.8856 191.901 33.9256 191.394 33.9256Z" fill="#044793"/>
<path d="M94.8588 62.7446C93.1944 62.7446 91.7134 62.5378 90.4159 62.1309C89.125 61.7239 88.0443 61.1836 87.1737 60.5165C86.3098 59.8494 85.6527 59.1155 85.1991 58.315L87.8008 55.1263H88.2144C88.9349 56.2036 89.8488 57.0575 90.9629 57.6879C92.0736 58.3217 93.3711 58.6352 94.8588 58.6352C96.1296 58.6352 97.0869 58.3684 97.7273 57.8347C98.3744 57.301 98.7013 56.5639 98.7013 55.6199C98.7013 55.0529 98.5946 54.5759 98.3811 54.1923C98.1743 53.8121 97.8341 53.4818 97.3538 53.205C96.8734 52.9315 96.223 52.6947 95.4058 52.4979L92.3104 51.7907C90.1557 51.3037 88.5513 50.4899 87.4939 49.3491C86.4432 48.2017 85.9196 46.7174 85.9196 44.8929C85.9196 43.532 86.2565 42.3412 86.9336 41.3172C87.6073 40.2865 88.5947 39.486 89.8955 38.9156C91.193 38.3486 92.7441 38.0617 94.5519 38.0617C96.3998 38.0617 97.9842 38.3085 99.3017 38.7955C100.616 39.2758 101.73 40.023 102.637 41.037L100.289 44.2524H99.8754C99.1983 43.542 98.4211 43.0083 97.5405 42.6514C96.6666 42.2978 95.6726 42.1177 94.5519 42.1177C93.2444 42.1177 92.2504 42.3512 91.5766 42.8115C90.8995 43.2651 90.5626 43.8989 90.5626 44.7061C90.5626 45.4632 90.7961 46.067 91.2698 46.5206C91.7501 46.9676 92.5706 47.3145 93.738 47.5613L96.9001 48.215C99.2283 48.7154 100.919 49.5493 101.97 50.7234C103.017 51.8975 103.544 53.4318 103.544 55.3264C103.544 56.8207 103.218 58.1249 102.571 59.2356C101.93 60.3497 100.956 61.2103 99.6486 61.824C98.3477 62.4377 96.7534 62.7446 94.8588 62.7446Z" fill="#044793"/>
<path d="M117.321 58.0881L118.508 61.4503C118.008 61.8506 117.387 62.1675 116.64 62.3976C115.9 62.6278 115.059 62.7445 114.119 62.7445C112.161 62.7445 110.67 62.2108 109.649 61.1435C108.635 60.0761 108.128 58.5251 108.128 56.4871V47.8948H105.38V44.2791H108.128V40.7567L112.678 40.0096V44.2791H117.814V47.8948H112.678V56.1669C112.678 57.0575 112.864 57.7112 113.238 58.1282C113.612 58.5384 114.152 58.7419 114.866 58.7419C115.673 58.7419 116.377 58.5251 116.974 58.0881H117.321Z" fill="#044793"/>
<path d="M127.179 62.7446C125.141 62.7446 123.637 62.1909 122.67 61.0768C121.709 59.9661 121.229 58.3684 121.229 56.287V44.2925H125.765V55.7133C125.765 56.8274 125.998 57.6346 126.472 58.1416C126.952 58.6486 127.69 58.9021 128.687 58.9021C129.948 58.9021 130.928 58.4885 131.622 57.6613C132.323 56.8341 132.676 55.5365 132.676 53.7654V44.2925H137.226V62.3977H132.863V59.7426L132.516 59.6626C131.936 60.6966 131.229 61.4704 130.395 61.9841C129.557 62.4911 128.487 62.7446 127.179 62.7446Z" fill="#044793"/>
<path d="M148.768 62.7445C147.334 62.7445 146.067 62.3976 144.966 61.7038C143.872 61.01 143.011 59.9627 142.391 58.5551C141.767 57.1508 141.457 55.4164 141.457 53.3517C141.457 51.2903 141.777 49.5558 142.418 48.1482C143.058 46.744 143.942 45.6933 145.073 44.9995C146.2 44.3057 147.514 43.9588 149.009 43.9588C150.129 43.9588 151.103 44.1556 151.931 44.5459C152.758 44.9295 153.455 45.5299 154.025 46.3471L154.372 46.267V37.0209H158.908V62.3976H154.372V60.0494L154.025 59.9827C153.518 60.8366 152.828 61.5137 151.957 62.0107C151.083 62.4977 150.023 62.7445 148.768 62.7445ZM150.249 58.8886C151.53 58.8886 152.538 58.4317 153.278 57.5144C154.025 56.6005 154.399 55.2129 154.399 53.3517C154.399 51.4938 154.025 50.1062 153.278 49.1889C152.538 48.275 151.53 47.8147 150.249 47.8147C148.915 47.8147 147.891 48.2617 147.181 49.1489C146.477 50.0395 146.127 51.4404 146.127 53.3517C146.127 55.2563 146.477 56.6572 147.181 57.5544C147.891 58.445 148.915 58.8886 150.249 58.8886Z" fill="#044793"/>
<path d="M166.39 42.131C165.569 42.131 164.902 41.8842 164.388 41.3839C163.871 40.8869 163.614 40.2431 163.614 39.4493C163.614 38.6754 163.871 38.0417 164.388 37.5413C164.902 37.0444 165.569 36.7942 166.39 36.7942C166.94 36.7942 167.43 36.9109 167.857 37.1411C168.284 37.3746 168.611 37.6881 168.845 38.0884C169.085 38.4886 169.205 38.9423 169.205 39.4493C169.205 39.9663 169.085 40.4299 168.845 40.8368C168.611 41.2371 168.284 41.554 167.857 41.7841C167.43 42.0176 166.94 42.131 166.39 42.131ZM164.135 62.3977V44.2925H168.671V62.3977H164.135Z" fill="#044793"/>
<path d="M181.779 62.7445C180.008 62.7445 178.45 62.381 177.109 61.6505C175.775 60.9233 174.738 59.856 174.001 58.4484C173.26 57.0441 172.893 55.3463 172.893 53.3517C172.893 51.3604 173.26 49.6626 174.001 48.255C174.738 46.8408 175.775 45.7734 177.109 45.0529C178.45 44.3258 180.008 43.9589 181.779 43.9589C183.557 43.9589 185.115 44.3258 186.449 45.0529C187.79 45.7734 188.83 46.8408 189.571 48.255C190.318 49.6626 190.692 51.3604 190.692 53.3517C190.692 55.3463 190.318 57.0441 189.571 58.4484C188.83 59.856 187.79 60.9233 186.449 61.6505C185.115 62.381 183.557 62.7445 181.779 62.7445ZM181.779 58.8887C184.598 58.8887 186.009 57.0441 186.009 53.3517C186.009 51.4404 185.642 50.0395 184.915 49.1489C184.194 48.2617 183.147 47.8147 181.779 47.8147C178.967 47.8147 177.563 49.6626 177.563 53.3517C177.563 57.0441 178.967 58.8887 181.779 58.8887Z" fill="#044793"/>
</svg>
