<svg width="116" height="43" viewBox="0 0 116 43" fill="none" xmlns="http://www.w3.org/2000/svg">
<mask id="mask0_2_84" style="mask-type:luminance" maskUnits="userSpaceOnUse" x="0" y="0" width="43" height="43">
<path d="M0 0H42.5032V42.5012H0V0Z" fill="white"/>
</mask>
<g mask="url(#mask0_2_84)">
<mask id="mask1_2_84" style="mask-type:luminance" maskUnits="userSpaceOnUse" x="0" y="0" width="43" height="43">
<path d="M21.2506 0C9.51416 0 0 9.51416 0 21.2506C0 32.9871 9.51416 42.5012 21.2506 42.5012C32.9891 42.5012 42.5032 32.9871 42.5032 21.2506C42.5032 9.51416 32.9891 0 21.2506 0Z" fill="white"/>
</mask>
<g mask="url(#mask1_2_84)">
<path d="M0 0H42.5032V42.5012H0V0Z" fill="#F2EEE3"/>
</g>
</g>
<path d="M13.4995 22.5126C13.5454 24.8547 13.7431 26.2723 14.1165 28.5884C14.3162 29.8184 14.5538 31.0543 15.0489 32.2124C15.3305 32.8693 15.7498 33.9994 16.5265 34.277C18.0939 34.832 18.5351 32.5059 18.7009 31.4597C19.0403 29.3192 18.8207 28.0713 19.5035 25.9788C19.7691 25.1661 20.4859 24.4873 21.2466 24.4354C22.0073 24.4873 22.7242 25.1661 22.9897 25.9788C23.6726 28.0713 23.4529 29.3192 23.7904 31.4597C23.9561 32.5059 24.3974 34.832 25.9648 34.277C26.7435 33.9994 27.1628 32.8693 27.4443 32.2124C27.9395 31.0543 28.1771 29.8184 28.3747 28.5884C28.7501 26.2723 28.9478 24.8547 28.9937 22.5126C29.0596 22.4686 29.1135 22.4007 29.1455 22.3109C30.5032 18.4913 33.7578 11.7505 29.2553 8.58775C28.195 7.84299 26.7834 7.66928 25.4816 7.85098C23.7445 8.09457 22.6403 8.6177 21.2466 8.70356C19.8529 8.6177 18.7468 8.09457 17.0117 7.85098C15.7078 7.66928 14.2982 7.84299 13.238 8.58775C8.73345 11.7505 11.99 18.4913 13.3458 22.3109C13.3777 22.4007 13.4336 22.4686 13.4995 22.5126Z" fill="#044793"/>
<mask id="mask2_2_84" style="mask-type:luminance" maskUnits="userSpaceOnUse" x="14" y="14" width="14" height="7">
<path d="M14.9691 14.7694H27.4263V20.4839H14.9691V14.7694Z" fill="white"/>
</mask>
<g mask="url(#mask2_2_84)">
<path d="M26.2164 14.7737H25.817C25.817 17.2855 23.7624 19.3421 21.2486 19.3421C18.7368 19.3421 16.6822 17.2855 16.6822 14.7737H14.9691V15.9158H15.6539C16.1671 18.5414 18.5092 20.4842 21.2486 20.4842C23.9901 20.4842 26.3302 18.5414 26.8453 15.9158H27.5302V14.7737H26.2164Z" fill="#F2EEE3"/>
</g>
<path d="M57.4541 5.74042C59.7863 5.74042 61.5633 6.34341 62.7893 7.54541C64.0192 8.74941 64.6342 10.5404 64.6342 12.9205C64.6342 15.2905 64.0192 17.0795 62.7893 18.2875C61.5633 19.4975 59.7863 20.1005 57.4541 20.1005H52.2867V5.74042H57.4541ZM57.2864 17.7125C58.766 17.7125 59.8701 17.3351 60.6009 16.5784C61.3357 15.8236 61.7031 14.6037 61.7031 12.9205C61.7031 11.2393 61.3357 10.0193 60.6009 9.26255C59.8701 8.50781 58.766 8.12844 57.2864 8.12844H55.122V17.7125H57.2864Z" fill="#F2EEE3"/>
<path d="M76.4791 15.3005H69.5147C69.5885 16.243 69.8541 16.9298 70.3133 17.3611C70.7766 17.7884 71.4015 18 72.1902 18C72.8132 18 73.3163 17.8842 73.6997 17.6486C74.0871 17.415 74.4025 17.0636 74.6421 16.5944H74.8498L76.6548 17.7525C76.2974 18.5152 75.7623 19.1322 75.0495 19.6054C74.3346 20.0746 73.3822 20.3082 72.1902 20.3082C71.0721 20.3082 70.1057 20.0966 69.291 19.6693C68.4764 19.244 67.8474 18.611 67.4062 17.7684C66.9629 16.9278 66.7433 15.8995 66.7433 14.6856C66.7433 13.4556 66.9749 12.4213 67.4381 11.5787C67.9014 10.7321 68.5283 10.1012 69.323 9.68589C70.1157 9.27058 71.0082 9.06293 71.9985 9.06293C73.532 9.06293 74.706 9.47025 75.5207 10.2849C76.3353 11.0955 76.7426 12.2856 76.7426 13.8549C76.7426 14.426 76.7227 14.8673 76.6867 15.1807L76.4791 15.3005ZM74.139 13.5355C74.111 12.7109 73.9193 12.1118 73.5639 11.7385C73.2065 11.3611 72.6854 11.1714 71.9985 11.1714C70.6248 11.1714 69.8142 11.9601 69.5706 13.5355H74.139Z" fill="#F2EEE3"/>
<path d="M79.1103 20.1005V9.26259H81.722V10.8599L81.9296 10.9079C82.6005 9.6779 83.6907 9.06293 85.2042 9.06293C86.4541 9.06293 87.3726 9.40436 87.9596 10.0852C88.5446 10.7621 88.8381 11.7524 88.8381 13.0563V20.1005H86.1226V13.3917C86.1226 12.6729 85.9789 12.1538 85.6914 11.8343C85.4038 11.5148 84.9406 11.3551 84.3017 11.3551C83.523 11.3551 82.916 11.6087 82.4807 12.1138C82.0434 12.621 81.8258 13.4137 81.8258 14.4939V20.1005H79.1103Z" fill="#F2EEE3"/>
<path d="M97.7099 17.5208L98.4207 19.5334C98.1212 19.773 97.7499 19.9627 97.3026 20.1005C96.8593 20.2382 96.3562 20.3081 95.7931 20.3081C94.6211 20.3081 93.7286 19.9887 93.1176 19.3497C92.5106 18.7108 92.2071 17.7823 92.2071 16.5624V11.4189H90.5618V9.25453H92.2071V7.14605L94.9306 6.69879V9.25453H98.0054V11.4189H94.9306V16.3707C94.9306 16.9038 95.0424 17.2951 95.266 17.5447C95.4896 17.7903 95.8131 17.9121 96.2404 17.9121C96.7236 17.9121 97.1449 17.7823 97.5023 17.5208H97.7099Z" fill="#F2EEE3"/>
<path d="M102.876 20.3082C102.184 20.3082 101.583 20.1804 101.071 19.9248C100.56 19.6693 100.165 19.2939 99.8894 18.7987C99.6118 18.3035 99.4741 17.7105 99.4741 17.0177C99.4741 16.3748 99.6118 15.8356 99.8894 15.4044C100.165 14.9691 100.592 14.6117 101.167 14.3341C101.742 14.0526 102.495 13.837 103.427 13.6872C104.076 13.5814 104.57 13.4676 104.905 13.3438C105.24 13.216 105.466 13.0762 105.584 12.9205C105.706 12.7608 105.768 12.5611 105.768 12.3215C105.768 11.9761 105.644 11.7125 105.4 11.5308C105.155 11.3451 104.753 11.2513 104.194 11.2513C103.591 11.2513 103.016 11.3871 102.469 11.6586C101.926 11.9262 101.455 12.2776 101.055 12.7128H100.864L99.7216 10.9957C100.269 10.3847 100.94 9.90952 101.734 9.57408C102.527 9.23464 103.392 9.06293 104.33 9.06293C105.762 9.06293 106.798 9.36642 107.437 9.97341C108.08 10.5804 108.403 11.447 108.403 12.5691V17.2733C108.403 17.7584 108.615 18 109.042 18C109.206 18 109.37 17.9721 109.529 17.9122L109.665 17.9521L109.857 19.845C109.707 19.9408 109.497 20.0207 109.226 20.0846C108.958 20.1485 108.667 20.1804 108.347 20.1804C107.696 20.1804 107.191 20.0566 106.83 19.805C106.466 19.5555 106.207 19.1661 106.047 18.639L105.839 18.615C105.312 19.7451 104.324 20.3082 102.876 20.3082ZM103.739 18.2716C104.366 18.2716 104.869 18.0619 105.248 17.6406C105.626 17.2213 105.815 16.6323 105.815 15.8756V14.7734L105.624 14.7335C105.464 14.8673 105.25 14.9791 104.985 15.0689C104.717 15.1548 104.334 15.2406 103.835 15.3245C103.248 15.4263 102.824 15.596 102.565 15.8356C102.309 16.0713 102.182 16.4087 102.182 16.85C102.182 17.3132 102.317 17.6686 102.589 17.9122C102.864 18.1518 103.248 18.2716 103.739 18.2716Z" fill="#F2EEE3"/>
<path d="M114.57 20.3081C113.596 20.3081 112.849 20.0446 112.334 19.5175C111.823 18.9903 111.567 18.1897 111.567 17.1135V4.90979H114.291V17.0096C114.291 17.6705 114.564 18 115.113 18C115.267 18 115.435 17.974 115.617 17.9201L115.752 17.9601L116 20.0526C115.844 20.1324 115.643 20.1923 115.393 20.2363C115.147 20.2842 114.874 20.3081 114.57 20.3081Z" fill="#F2EEE3"/>
<path d="M56.7833 37.5594C55.7869 37.5594 54.9004 37.4357 54.1237 37.1921C53.351 36.9485 52.7041 36.625 52.1829 36.2257C51.6658 35.8263 51.2725 35.3871 51.0009 34.9079L52.5583 32.999H52.8059C53.2372 33.644 53.7843 34.1551 54.4512 34.5325C55.1161 34.9119 55.8928 35.0995 56.7833 35.0995C57.544 35.0995 58.1171 34.9398 58.5004 34.6203C58.8878 34.3009 59.0835 33.8596 59.0835 33.2946C59.0835 32.9551 59.0196 32.6696 58.8918 32.44C58.768 32.2124 58.5643 32.0147 58.2768 31.849C57.9893 31.6852 57.5999 31.5435 57.1107 31.4257L55.2578 31.0024C53.968 30.7109 53.0076 30.2237 52.3746 29.5408C51.7457 28.8539 51.4322 27.9654 51.4322 26.8732C51.4322 26.0586 51.6339 25.3458 52.0392 24.7328C52.4425 24.1158 53.0335 23.6366 53.8122 23.2952C54.5889 22.9558 55.5174 22.7841 56.5996 22.7841C57.7057 22.7841 58.6542 22.9318 59.4429 23.2233C60.2295 23.5108 60.8964 23.9581 61.4395 24.5651L60.0339 26.4899H59.7863C59.381 26.0646 58.9157 25.7451 58.3886 25.5315C57.8655 25.3198 57.2705 25.212 56.5996 25.212C55.8169 25.212 55.2219 25.3518 54.8186 25.6273C54.4132 25.8989 54.2116 26.2782 54.2116 26.7614C54.2116 27.2147 54.3513 27.5761 54.6349 27.8476C54.9224 28.1152 55.4136 28.3228 56.1124 28.4706L58.0052 28.8619C59.3989 29.1614 60.4112 29.6606 61.0402 30.3634C61.6672 31.0663 61.9826 31.9847 61.9826 33.1188C61.9826 34.0134 61.787 34.7941 61.3996 35.4589C61.0162 36.1258 60.4332 36.641 59.6505 37.0084C58.8718 37.3758 57.9174 37.5594 56.7833 37.5594Z" fill="#F2EEE3"/>
<path d="M70.2292 34.772L70.94 36.7847C70.6405 37.0243 70.2691 37.214 69.8219 37.3518C69.3786 37.4895 68.8755 37.5594 68.3124 37.5594C67.1404 37.5594 66.2478 37.2399 65.6369 36.601C65.0299 35.9621 64.7264 35.0336 64.7264 33.8136V28.6702H63.0811V26.5058H64.7264V24.3973L67.4498 23.9501V26.5058H70.5247V28.6702H67.4498V33.622C67.4498 34.1551 67.5617 34.5464 67.7853 34.796C68.0089 35.0416 68.3324 35.1634 68.7597 35.1634C69.2429 35.1634 69.6642 35.0336 70.0216 34.772H70.2292Z" fill="#F2EEE3"/>
<path d="M76.1306 37.5595C74.9106 37.5595 74.0101 37.228 73.4311 36.5611C72.856 35.8962 72.5685 34.9398 72.5685 33.6939V26.5139H75.284V33.3505C75.284 34.0174 75.4238 34.5006 75.7073 34.804C75.9948 35.1075 76.4361 35.2593 77.0331 35.2593C77.7878 35.2593 78.3748 35.0117 78.7902 34.5165C79.2095 34.0214 79.4211 33.2446 79.4211 32.1844V26.5139H82.1446V37.3518H79.5329V35.7625L79.3253 35.7145C78.9778 36.3335 78.5545 36.7967 78.0554 37.1042C77.5542 37.4077 76.9133 37.5595 76.1306 37.5595Z" fill="#F2EEE3"/>
<path d="M89.0541 37.5594C88.1955 37.5594 87.4368 37.3518 86.7779 36.9365C86.123 36.5212 85.6078 35.8942 85.2365 35.0516C84.8631 34.211 84.6774 33.1727 84.6774 31.9368C84.6774 30.7028 84.8691 29.6646 85.2524 28.822C85.6358 27.9814 86.1649 27.3524 86.8418 26.9371C87.5167 26.5218 88.3034 26.3142 89.1979 26.3142C89.8688 26.3142 90.4518 26.432 90.947 26.6656C91.4421 26.8952 91.8594 27.2546 92.2009 27.7438L92.4085 27.6959V22.1611H95.124V37.3518H92.4085V35.9461L92.2009 35.9062C91.8974 36.4173 91.4841 36.8227 90.9629 37.1202C90.4398 37.4117 89.8049 37.5594 89.0541 37.5594ZM89.9406 35.2513C90.7074 35.2513 91.3104 34.9777 91.7536 34.4286C92.2009 33.8816 92.4245 33.0509 92.4245 31.9368C92.4245 30.8246 92.2009 29.994 91.7536 29.4449C91.3104 28.8979 90.7074 28.6223 89.9406 28.6223C89.142 28.6223 88.529 28.8899 88.1037 29.421C87.6824 29.9541 87.4727 30.7927 87.4727 31.9368C87.4727 33.0769 87.6824 33.9155 88.1037 34.4526C88.529 34.9857 89.142 35.2513 89.9406 35.2513Z" fill="#F2EEE3"/>
<path d="M99.6023 25.22C99.1111 25.22 98.7118 25.0723 98.4043 24.7728C98.0948 24.4752 97.941 24.0899 97.941 23.6147C97.941 23.1515 98.0948 22.7721 98.4043 22.4726C98.7118 22.1751 99.1111 22.0253 99.6023 22.0253C99.9317 22.0253 100.225 22.0952 100.481 22.233C100.736 22.3728 100.932 22.5604 101.072 22.8C101.216 23.0396 101.287 23.3112 101.287 23.6147C101.287 23.9242 101.216 24.2017 101.072 24.4453C100.932 24.6849 100.736 24.8746 100.481 25.0124C100.225 25.1521 99.9317 25.22 99.6023 25.22ZM98.2525 37.3518V26.5139H100.968V37.3518H98.2525Z" fill="#F2EEE3"/>
<path d="M108.815 37.5594C107.754 37.5594 106.822 37.3418 106.019 36.9045C105.221 36.4692 104.6 35.8303 104.158 34.9877C103.715 34.1471 103.495 33.1308 103.495 31.9368C103.495 30.7448 103.715 29.7285 104.158 28.8859C104.6 28.0393 105.221 27.4003 106.019 26.9691C106.822 26.5338 107.754 26.3141 108.815 26.3141C109.879 26.3141 110.811 26.5338 111.61 26.9691C112.413 27.4003 113.036 28.0393 113.479 28.8859C113.926 29.7285 114.15 30.7448 114.15 31.9368C114.15 33.1308 113.926 34.1471 113.479 34.9877C113.036 35.8303 112.413 36.4692 111.61 36.9045C110.811 37.3418 109.879 37.5594 108.815 37.5594ZM108.815 35.2513C110.502 35.2513 111.346 34.1471 111.346 31.9368C111.346 30.7927 111.127 29.9541 110.691 29.421C110.26 28.8899 109.633 28.6223 108.815 28.6223C107.131 28.6223 106.291 29.7285 106.291 31.9368C106.291 34.1471 107.131 35.2513 108.815 35.2513Z" fill="#F2EEE3"/>
</svg>
