<svg width="16" height="16" viewBox="0 0 18 18" fill="none" xmlns="http://www.w3.org/2000/svg">
<path d="M7.82617 0.689651C7.92838 0.482632 8.08647 0.308333 8.28256 0.18646C8.47865 0.0645872 8.70492 0 8.9358 0C9.16667 0 9.39295 0.0645872 9.58904 0.18646C9.78512 0.308333 9.94321 0.482632 10.0454 0.689651L12.1368 4.9274L16.8132 5.60803C17.0418 5.641 17.2566 5.73729 17.4333 5.88602C17.6101 6.03474 17.7416 6.22996 17.8132 6.44958C17.8847 6.6692 17.8933 6.90446 17.8381 7.12873C17.7829 7.35301 17.666 7.55736 17.5007 7.71865L14.1154 11.0173L14.9143 15.6744C14.9534 15.902 14.9281 16.1361 14.8411 16.3501C14.7541 16.564 14.609 16.7494 14.4221 16.8852C14.2353 17.021 14.0142 17.1017 13.7838 17.1184C13.5534 17.135 13.323 17.0868 13.1185 16.9793L8.9358 14.7793L4.75305 16.9793C4.54863 17.0868 4.31819 17.135 4.08781 17.1184C3.85744 17.1017 3.63631 17.021 3.44945 16.8852C3.2626 16.7494 3.11747 16.564 3.03049 16.3501C2.94352 16.1361 2.91816 15.902 2.9573 15.6744L3.7548 11.0173L0.372296 7.71728C0.207392 7.55602 0.090835 7.35189 0.0357766 7.12791C-0.0192818 6.90393 -0.0106504 6.66903 0.0606969 6.44969C0.132044 6.23036 0.263268 6.03533 0.439562 5.88661C0.615856 5.73789 0.830204 5.6414 1.05842 5.60803L5.73342 4.9274L7.82617 0.689651Z" fill="#F2EEE3"/>
</svg>
