<svg width="16" height="16" viewBox="0 0 18 18" fill="none" xmlns="http://www.w3.org/2000/svg">
<path d="M7.89172 0.88887C7.99393 0.68185 8.15202 0.507552 8.34811 0.385679C8.5442 0.263806 8.77047 0.199219 9.00135 0.199219C9.23223 0.199219 9.4585 0.263806 9.65459 0.385679C9.85068 0.507552 10.0088 0.68185 10.111 0.88887L12.2023 5.12662L16.8787 5.80724C17.1073 5.84022 17.3222 5.93651 17.4989 6.08524C17.6756 6.23396 17.8072 6.42918 17.8787 6.6488C17.9503 6.86842 17.9589 7.10367 17.9037 7.32795C17.8484 7.55223 17.7316 7.75658 17.5662 7.91787L14.181 11.2165L14.9798 15.8736C15.019 16.1013 14.9936 16.3353 14.9067 16.5493C14.8197 16.7633 14.6745 16.9486 14.4877 17.0844C14.3008 17.2202 14.0797 17.301 13.8493 17.3176C13.619 17.3342 13.3885 17.286 13.1841 17.1785L9.00135 14.9785L4.8186 17.1785C4.61418 17.286 4.38374 17.3342 4.15337 17.3176C3.92299 17.301 3.70186 17.2202 3.515 17.0844C3.32815 16.9486 3.18302 16.7633 3.09604 16.5493C3.00907 16.3353 2.98371 16.1013 3.02285 15.8736L3.82035 11.2165L0.437848 7.91649C0.272944 7.75524 0.156387 7.55111 0.101328 7.32713C0.04627 7.10315 0.0549013 6.86824 0.126249 6.64891C0.197596 6.42958 0.32882 6.23455 0.505114 6.08583C0.681408 5.93711 0.895756 5.84062 1.12397 5.80724L5.79897 5.12662L7.89172 0.88887ZM8.99997 1.74824L7.00072 5.80037C6.91195 5.98009 6.78085 6.13556 6.6187 6.2534C6.45655 6.37124 6.2682 6.44793 6.06985 6.47687L1.59697 7.12724L4.83372 10.2815C4.97727 10.4217 5.08457 10.5947 5.14637 10.7856C5.20818 10.9766 5.22262 11.1796 5.18847 11.3774L4.42535 15.8324L8.4266 13.7286C8.60408 13.6354 8.80156 13.5867 9.00204 13.5867C9.20251 13.5867 9.39999 13.6354 9.57747 13.7286L13.5787 15.8324L12.8142 11.3774C12.7801 11.1796 12.7945 10.9766 12.8563 10.7856C12.9181 10.5947 13.0254 10.4217 13.169 10.2815L16.4057 7.12724L11.9328 6.47687C11.7345 6.44793 11.5461 6.37124 11.384 6.2534C11.2218 6.13556 11.0907 5.98009 11.002 5.80037L8.99997 1.74824Z" fill="#FFFCF4"/>
</svg>
